<?xml version="1.0" encoding="UTF-8" standalone="no"?><svg xmlns="http://www.w3.org/2000/svg" xmlns:xlink="http://www.w3.org/1999/xlink" contentStyleType="text/css" height="711px" preserveAspectRatio="none" style="width:178px;height:711px;background:#FFFFFF;" version="1.1" viewBox="0 0 178 711" width="178px" zoomAndPan="magnify"><defs/><g><ellipse cx="70.5" cy="20" fill="#222222" rx="10" ry="10" style="stroke:#222222;stroke-width:1.0;"/><rect fill="#F1F1F1" height="36.3887" rx="12.5" ry="12.5" style="stroke:#181818;stroke-width:0.5;" width="80" x="30.5" y="50"/><text fill="#000000" font-family="sans-serif" font-size="12" lengthAdjust="spacing" textLength="60" x="40.5" y="73.752">创建主窗口</text><rect fill="#F1F1F1" height="36.3887" rx="12.5" ry="12.5" style="stroke:#181818;stroke-width:0.5;" width="95" x="23" y="162.7773"/><text fill="#000000" font-family="sans-serif" font-size="12" lengthAdjust="spacing" textLength="72" x="36" y="186.5293">设置横纵大小</text><polygon fill="#F1F1F1" points="32,239.166,109,239.166,121,251.166,109,263.166,32,263.166,20,251.166,32,239.166" style="stroke:#181818;stroke-width:0.5;"/><text fill="#000000" font-family="sans-serif" font-size="11" lengthAdjust="spacing" textLength="18" x="74.5" y="275.772">yes</text><text fill="#000000" font-family="sans-serif" font-size="11" lengthAdjust="spacing" textLength="77" x="32" y="256.2605">横纵不满足条件</text><text fill="#000000" font-family="sans-serif" font-size="11" lengthAdjust="spacing" textLength="15" x="121" y="248.749">not</text><rect fill="#F1F1F1" height="69.166" rx="12.5" ry="12.5" style="stroke:#181818;stroke-width:0.5;" width="68" x="36.5" y="297.272"/><text fill="#000000" font-family="sans-serif" font-size="12" lengthAdjust="spacing" textLength="48" x="46.5" y="321.0239">生成地图</text><text fill="#000000" font-family="sans-serif" font-size="12" lengthAdjust="spacing" textLength="48" x="46.5" y="337.4126">手动生成</text><text fill="#000000" font-family="sans-serif" font-size="12" lengthAdjust="spacing" textLength="48" x="46.5" y="353.8013">自动生成</text><rect fill="#F1F1F1" height="36.3887" rx="12.5" ry="12.5" style="stroke:#181818;stroke-width:0.5;" width="104" x="18.5" y="397.0352"/><text fill="#000000" font-family="sans-serif" font-size="12" lengthAdjust="spacing" textLength="84" x="28.5" y="420.7871">设置起点和终点</text><polygon fill="#F1F1F1" points="32,473.4238,109,473.4238,121,485.4238,109,497.4238,32,497.4238,20,485.4238,32,473.4238" style="stroke:#181818;stroke-width:0.5;"/><text fill="#000000" font-family="sans-serif" font-size="11" lengthAdjust="spacing" textLength="18" x="74.5" y="510.0298">yes</text><text fill="#000000" font-family="sans-serif" font-size="11" lengthAdjust="spacing" textLength="77" x="32" y="490.5183">判断起点和终点</text><text fill="#000000" font-family="sans-serif" font-size="11" lengthAdjust="spacing" textLength="15" x="121" y="483.0068">not</text><rect fill="#F1F1F1" height="69.166" rx="12.5" ry="12.5" style="stroke:#181818;stroke-width:0.5;" width="68" x="36.5" y="531.5298"/><text fill="#000000" font-family="sans-serif" font-size="12" lengthAdjust="spacing" textLength="24" x="46.5" y="555.2817">搜索</text><text fill="#000000" font-family="sans-serif" font-size="12" lengthAdjust="spacing" textLength="48" x="46.5" y="571.6704">DFS寻路</text><text fill="#000000" font-family="sans-serif" font-size="12" lengthAdjust="spacing" textLength="43" x="46.5" y="588.0591">A星算法</text><rect fill="#F1F1F1" height="36.3887" rx="12.5" ry="12.5" style="stroke:#181818;stroke-width:0.5;" width="71" x="35" y="106.3887"/><text fill="#000000" font-family="sans-serif" font-size="12" lengthAdjust="spacing" textLength="48" x="48" y="130.1406">开始运行</text><polygon fill="#F1F1F1" points="48.5,620.6958,92.5,620.6958,104.5,632.6958,92.5,644.6958,48.5,644.6958,36.5,632.6958,48.5,620.6958" style="stroke:#181818;stroke-width:0.5;"/><text fill="#000000" font-family="sans-serif" font-size="11" lengthAdjust="spacing" textLength="18" x="74.5" y="657.3018">yes</text><text fill="#000000" font-family="sans-serif" font-size="11" lengthAdjust="spacing" textLength="44" x="48.5" y="637.7903">关闭地图</text><text fill="#000000" font-family="sans-serif" font-size="11" lengthAdjust="spacing" textLength="15" x="104.5" y="630.2788">not</text><ellipse cx="70.5" cy="689.8018" fill="none" rx="11" ry="11" style="stroke:#222222;stroke-width:1.0;"/><ellipse cx="70.5" cy="689.8018" fill="#222222" rx="6" ry="6" style="stroke:#111111;stroke-width:1.0;"/><line style="stroke:#181818;stroke-width:1.0;" x1="70.5" x2="70.5" y1="30" y2="50"/><polygon fill="#181818" points="66.5,40,70.5,50,74.5,40,70.5,44" style="stroke:#181818;stroke-width:1.0;"/><line style="stroke:#181818;stroke-width:1.0;" x1="70.5" x2="70.5" y1="199.166" y2="239.166"/><polygon fill="#181818" points="66.5,229.166,70.5,239.166,74.5,229.166,70.5,233.166" style="stroke:#181818;stroke-width:1.0;"/><line style="stroke:#181818;stroke-width:1.0;" x1="121" x2="133" y1="251.166" y2="251.166"/><polygon fill="#181818" points="129,219.166,133,209.166,137,219.166,133,215.166" style="stroke:#181818;stroke-width:1.0;"/><line style="stroke:#181818;stroke-width:1.0;" x1="133" x2="133" y1="180.9717" y2="251.166"/><line style="stroke:#181818;stroke-width:1.0;" x1="133" x2="118" y1="180.9717" y2="180.9717"/><polygon fill="#181818" points="128,176.9717,118,180.9717,128,184.9717,124,180.9717" style="stroke:#181818;stroke-width:1.0;"/><line style="stroke:#181818;stroke-width:1.0;" x1="70.5" x2="70.5" y1="263.166" y2="297.272"/><polygon fill="#181818" points="66.5,287.272,70.5,297.272,74.5,287.272,70.5,291.272" style="stroke:#181818;stroke-width:1.0;"/><line style="stroke:#181818;stroke-width:1.0;" x1="70.5" x2="70.5" y1="433.4238" y2="473.4238"/><polygon fill="#181818" points="66.5,463.4238,70.5,473.4238,74.5,463.4238,70.5,467.4238" style="stroke:#181818;stroke-width:1.0;"/><line style="stroke:#181818;stroke-width:1.0;" x1="121" x2="134.5" y1="485.4238" y2="485.4238"/><polygon fill="#181818" points="130.5,453.4238,134.5,443.4238,138.5,453.4238,134.5,449.4238" style="stroke:#181818;stroke-width:1.0;"/><line style="stroke:#181818;stroke-width:1.0;" x1="134.5" x2="134.5" y1="415.2295" y2="485.4238"/><line style="stroke:#181818;stroke-width:1.0;" x1="134.5" x2="122.5" y1="415.2295" y2="415.2295"/><polygon fill="#181818" points="132.5,411.2295,122.5,415.2295,132.5,419.2295,128.5,415.2295" style="stroke:#181818;stroke-width:1.0;"/><line style="stroke:#181818;stroke-width:1.0;" x1="70.5" x2="70.5" y1="366.438" y2="397.0352"/><polygon fill="#181818" points="66.5,387.0352,70.5,397.0352,74.5,387.0352,70.5,391.0352" style="stroke:#181818;stroke-width:1.0;"/><line style="stroke:#181818;stroke-width:1.0;" x1="70.5" x2="70.5" y1="497.4238" y2="531.5298"/><polygon fill="#181818" points="66.5,521.5298,70.5,531.5298,74.5,521.5298,70.5,525.5298" style="stroke:#181818;stroke-width:1.0;"/><line style="stroke:#181818;stroke-width:1.0;" x1="70.5" x2="70.5" y1="142.7773" y2="162.7773"/><polygon fill="#181818" points="66.5,152.7773,70.5,162.7773,74.5,152.7773,70.5,156.7773" style="stroke:#181818;stroke-width:1.0;"/><line style="stroke:#181818;stroke-width:1.0;" x1="104.5" x2="152.5" y1="632.6958" y2="632.6958"/><polygon fill="#181818" points="148.5,386.438,152.5,376.438,156.5,386.438,152.5,382.438" style="stroke:#181818;stroke-width:1.0;"/><line style="stroke:#181818;stroke-width:1.0;" x1="152.5" x2="152.5" y1="124.583" y2="632.6958"/><line style="stroke:#181818;stroke-width:1.0;" x1="152.5" x2="106" y1="124.583" y2="124.583"/><polygon fill="#181818" points="116,120.583,106,124.583,116,128.583,112,124.583" style="stroke:#181818;stroke-width:1.0;"/><line style="stroke:#181818;stroke-width:1.0;" x1="70.5" x2="70.5" y1="600.6958" y2="620.6958"/><polygon fill="#181818" points="66.5,610.6958,70.5,620.6958,74.5,610.6958,70.5,614.6958" style="stroke:#181818;stroke-width:1.0;"/><line style="stroke:#181818;stroke-width:1.0;" x1="70.5" x2="70.5" y1="86.3887" y2="106.3887"/><polygon fill="#181818" points="66.5,96.3887,70.5,106.3887,74.5,96.3887,70.5,100.3887" style="stroke:#181818;stroke-width:1.0;"/><line style="stroke:#181818;stroke-width:1.0;" x1="70.5" x2="70.5" y1="644.6958" y2="678.8018"/><polygon fill="#181818" points="66.5,668.8018,70.5,678.8018,74.5,668.8018,70.5,672.8018" style="stroke:#181818;stroke-width:1.0;"/><!--MD5=[35ee88b6f505c95e223f968202fbb029]
@startuml

start
:创建主窗口;


repeat : 开始运行;
repeat : 设置横纵大小;
repeat while (横纵不满足条件) is (not) not (yes)
    :生成地图\n手动生成\n自动生成;
    
    repeat :设置起点和终点;
    repeat while (判断起点和终点) is (not) not (yes)
    :搜索\nDFS寻路\nA星算法;
repeat while (关闭地图) is (not) not (yes)


stop

@enduml

PlantUML version 1.2022.7(Tue Aug 23 01:01:30 CST 2022)
(GPL source distribution)
Java Runtime: Java(TM) SE Runtime Environment
JVM: Java HotSpot(TM) 64-Bit Server VM
Default Encoding: GBK
Language: zh
Country: CN
--></g></svg>